<svg id="visual" viewBox="0 0 960 540" width="960" height="540" xmlns="http://www.w3.org/2000/svg" xmlns:xlink="http://www.w3.org/1999/xlink" version="1.1"><rect x="0" y="0" width="960" height="540" fill="#ffffff"></rect><path d="M0 353L22.8 368.8C45.7 384.7 91.3 416.3 137 424.5C182.7 432.7 228.3 417.3 274 407.5C319.7 397.7 365.3 393.3 411.2 384.5C457 375.7 503 362.3 548.8 361.3C594.7 360.3 640.3 371.7 686 387.5C731.7 403.3 777.3 423.7 823 423.7C868.7 423.7 914.3 403.3 937.2 393.2L960 383L960 541L937.2 541C914.3 541 868.7 541 823 541C777.3 541 731.7 541 686 541C640.3 541 594.7 541 548.8 541C503 541 457 541 411.2 541C365.3 541 319.7 541 274 541C228.3 541 182.7 541 137 541C91.3 541 45.7 541 22.8 541L0 541Z" fill="#f4f4f4" stroke-linecap="round" stroke-linejoin="miter"></path></svg>