<svg id="visual" viewBox="0 0 900 675" width="auto" height="500" xmlns="http://www.w3.org/2000/svg" xmlns:xlink="http://www.w3.org/1999/xlink" version="1.1"><rect x="0" y="0" width="900" height="675" fill="#ffffff"></rect><path d="M0 441L21.5 460.8C43 480.7 86 520.3 128.8 530.5C171.7 540.7 214.3 521.3 257.2 509C300 496.7 343 491.3 385.8 480.3C428.7 469.3 471.3 452.7 514.2 451.5C557 450.3 600 464.7 642.8 484.5C685.7 504.3 728.3 529.7 771.2 529.8C814 530 857 505 878.5 492.5L900 480L900 676L878.5 676C857 676 814 676 771.2 676C728.3 676 685.7 676 642.8 676C600 676 557 676 514.2 676C471.3 676 428.7 676 385.8 676C343 676 300 676 257.2 676C214.3 676 171.7 676 128.8 676C86 676 43 676 21.5 676L0 676Z" fill="#f4f4f4" stroke-linecap="round" stroke-linejoin="miter"></path></svg>